<svg id="Layer_26" data-name="Layer 26" xmlns="http://www.w3.org/2000/svg" xmlns:xlink="http://www.w3.org/1999/xlink" viewBox="0 0 613.34 422.98"><defs><style>.cls-1{fill:url(#linear-gradient);}.cls-2{fill:#665831;}.cls-3{fill:#5b4d29;}.cls-4{fill:#544d3b;}.cls-5{fill:#8e753f;}.cls-6{fill:#4c483f;}.cls-7{fill:#605742;}.cls-8{fill:#408247;}.cls-11,.cls-15,.cls-22,.cls-23,.cls-9{fill:none;}.cls-31,.cls-9{stroke:#2d2d2d;}.cls-11,.cls-15,.cls-22,.cls-25,.cls-27,.cls-31,.cls-32,.cls-34,.cls-9{stroke-miterlimit:10;}.cls-10,.cls-25{fill:#5e5447;}.cls-11{stroke:#4c4c4c;}.cls-12{fill:#3f3f3f;}.cls-13{fill:#685730;}.cls-14,.cls-31,.cls-34{fill:#4c443b;}.cls-15{stroke:#d9e266;stroke-width:2px;}.cls-16{fill:#494946;}.cls-17{fill:#7f735b;}.cls-18{fill:#44443f;}.cls-19{fill:#665a42;}.cls-20{fill:#514327;}.cls-21{fill:#fff;}.cls-22{stroke:#fff;}.cls-23,.cls-25{stroke:#5e5447;}.cls-23{stroke-linejoin:round;}.cls-24{fill:#663f22;}.cls-26{fill:#2d2d2d;}.cls-27{fill:#564729;stroke:#564729;}.cls-28{fill:#706552;}.cls-29{fill:#514840;}.cls-30{fill:#665c4f;}.cls-32,.cls-38,.cls-40,.cls-41{fill:#d9e266;}.cls-32{stroke:#44443f;}.cls-33{opacity:0.42;fill:url(#linear-gradient-2);}.cls-34{stroke:#4c443b;}.cls-35{fill:#565650;}.cls-36{fill:#e7ea6e;}.cls-37{fill:#5c5349;}.cls-39{fill:#c2c45f;opacity:0.55;}.cls-40{opacity:0.68;}.cls-41{font-size:7px;font-family:Calibri;}.cls-42{fill:#444;}</style><linearGradient id="linear-gradient" x1="0.34" y1="189.74" x2="612.82" y2="189.74" gradientUnits="userSpaceOnUse"><stop offset="0" stop-color="#e2ba4b"/><stop offset="0.62" stop-color="#9e9e8c"/><stop offset="1" stop-color="#798faf"/></linearGradient><linearGradient id="linear-gradient-2" x1="275.03" y1="142.7" x2="608.33" y2="142.7" gradientTransform="translate(-15.24 34) rotate(-6.98)" gradientUnits="userSpaceOnUse"><stop offset="0" stop-color="#d9e266"/><stop offset="0.13" stop-color="#b8c057" stop-opacity="0.85"/><stop offset="0.44" stop-color="#6a6f32" stop-opacity="0.49"/><stop offset="0.71" stop-color="#313317" stop-opacity="0.23"/><stop offset="0.9" stop-color="#0d0e06" stop-opacity="0.06"/><stop offset="1" stop-opacity="0"/></linearGradient></defs><title>summer</title><rect class="cls-1" x="0.34" width="612.48" height="379.48"/><path class="cls-2" d="M0.5,288.9s100.57-39.65,141.55-32-65.23,39,26.89,32c89.88,1,51.08,67.57,169.81,59.25,118.72-6.81,52.65,80.65,162.89,45.65C613,349.84,613,375.51,613,375.51L612.14,423H-0.34Z" transform="translate(0.34)"/><polygon class="cls-3" points="74.81 386.86 52.52 365.8 59.6 335.97 88.98 327.18 111.28 348.24 104.2 378.08 74.81 386.86"/><polyline class="cls-4" points="369.46 422.98 391.46 408.85 414.58 422.98"/><polyline class="cls-5" points="259.85 422.98 287.83 410.4 305.27 422.98"/><polygon class="cls-6" points="211.41 373.48 191.32 366.29 187.5 345.29 203.77 331.48 223.87 338.67 227.69 359.67 211.41 373.48"/><polyline class="cls-7" points="505.71 422.98 504.48 411.33 527.66 394.48 553.85 406.13 555.62 422.98"/><path class="cls-8" d="M0,267.91s135.49-36.65,176.47-29-65.23,39,26.89,32c89.88,1,16.14,44,134.88,35.64,118.72-6.81,52.65,80.65,162.89,45.65,111.35-44,111.35-18.29,111.35-18.29L612.14,423H-0.34Z" transform="translate(0.34)"/><line class="cls-9" x1="289.82" y1="160.37" x2="285.85" y2="207.95"/><line class="cls-9" x1="279.59" y1="161.87" x2="296.11" y2="206.67"/><line class="cls-9" x1="265.65" y1="192.1" x2="310.31" y2="175.64"/><line class="cls-9" x1="271.08" y1="167.07" x2="304.98" y2="200.7"/><line class="cls-9" x1="271.22" y1="200.37" x2="304.74" y2="166.57"/><line class="cls-9" x1="265.83" y1="175.79" x2="310.76" y2="191.94"/><line class="cls-9" x1="280.02" y1="205.91" x2="296.12" y2="161.11"/><line class="cls-9" x1="264.4" y1="181.87" x2="311.84" y2="185.83"/><line class="cls-9" x1="139.88" y1="203.93" x2="187.13" y2="198.14"/><line class="cls-9" x1="160.39" y1="177.7" x2="166.19" y2="225.09"/><line class="cls-9" x1="150.68" y1="181.25" x2="175.97" y2="221.75"/><line class="cls-9" x1="143.18" y1="213.69" x2="183.56" y2="188.48"/><line class="cls-9" x1="143.41" y1="188.08" x2="183.44" y2="214.1"/><line class="cls-9" x1="150.32" y1="220.64" x2="176.26" y2="180.73"/><line class="cls-9" x1="140.04" y1="197.68" x2="187.32" y2="204.35"/><line class="cls-9" x1="160.07" y1="224.28" x2="166.71" y2="177.14"/><polygon class="cls-10" points="288.21 185.12 273.9 170.5 265.15 150.03 265.33 146.01 285.36 166.6 288.21 185.12"/><line class="cls-11" x1="294.72" y1="161.91" x2="280.85" y2="207.6"/><line class="cls-11" x1="284.4" y1="161.24" x2="291.15" y2="208.5"/><line class="cls-11" x1="264.42" y1="187.87" x2="311.55" y2="181.14"/><line class="cls-11" x1="274.99" y1="164.54" x2="301.08" y2="204.52"/><line class="cls-11" x1="268.14" y1="197.12" x2="308.01" y2="171.11"/><line class="cls-11" x1="268.02" y1="171.96" x2="308.57" y2="197.18"/><line class="cls-11" x1="275.58" y1="204.38" x2="300.72" y2="163.96"/><line class="cls-11" x1="265.35" y1="177.6" x2="310.91" y2="191.43"/><circle class="cls-12" cx="287.53" cy="184.32" r="5.56" transform="translate(-19.91 36.28) rotate(-6.98)"/><path class="cls-13" d="M159.65,170.93a30.31,30.31,0,1,0,33.77,26.41A30.31,30.31,0,0,0,159.65,170.93ZM166.39,226a25.15,25.15,0,1,1,21.91-28A25.15,25.15,0,0,1,166.39,226Z" transform="translate(0.34)"/><path class="cls-13" d="M288.8,155.52a28.38,28.38,0,1,0,27.12,29.58A28.38,28.38,0,0,0,288.8,155.52Zm-2.25,51.87a23.54,23.54,0,1,1,24.54-22.5A23.54,23.54,0,0,1,286.55,207.39Z" transform="translate(0.34)"/><circle class="cls-12" cx="163.17" cy="201.08" r="13.3" transform="translate(-22.87 21.3) rotate(-6.98)"/><path class="cls-14" d="M288.75,159.17a25.05,25.05,0,1,0,23.94,26.11A25.05,25.05,0,0,0,288.75,159.17Zm-2,45.79a20.78,20.78,0,1,1,21.67-19.86A20.78,20.78,0,0,1,286.76,205Z" transform="translate(0.34)"/><path class="cls-14" d="M164.21,175a26.11,26.11,0,1,0,25,27.22A26.11,26.11,0,0,0,164.21,175Zm-2.07,47.73A21.66,21.66,0,1,1,184.72,202,21.66,21.66,0,0,1,162.14,222.73Z" transform="translate(0.34)"/><circle class="cls-15" cx="287.47" cy="184.01" r="21.03" transform="translate(-19.87 36.27) rotate(-6.98)"/><circle class="cls-15" cx="162.84" cy="201.08" r="21.03" transform="translate(-22.87 21.26) rotate(-6.98)"/><path class="cls-16" d="M178,139.83c-1,2.23-3.21,8.27.48,11.24a2.18,2.18,0,0,0,1.74.43c9.76-1.72,23.39-4.7,28.73-5.88a2.24,2.24,0,0,1,2.67,1.7l0.07,0.3a2.28,2.28,0,0,1-.6,2.1c-2.47,2.49-.63,1.19-0.63,1.19L211,158l0.11,2.27,1.63-3.25-2.06,6.89a1.44,1.44,0,0,1-1.09,1h0a1.44,1.44,0,0,0-.92.63l-1.51,2.35a2.26,2.26,0,0,0,.19,2.69h0a2.26,2.26,0,0,0,1.64.78l10.14,0.31a2.26,2.26,0,0,0,2.24-1.66l1.45-5.26,3.78-14.87a2.25,2.25,0,0,0,.05-0.29l0.23-1.91a2.1,2.1,0,0,0,0-.25c0-1.19-.24-10.24-6.95-12.33a2.66,2.66,0,0,0-.45-0.1,74,74,0,0,0-15.73-.21c-3.1.14-9.4-2.14-24.56,3.89A2.28,2.28,0,0,0,178,139.83Z" transform="translate(0.34)"/><path class="cls-14" d="M241.39,156.32l-13.94,40.77a3,3,0,0,1-3.21,2.11l-27.06-4.06s0.24-5.5-5.26-13.71l33.59-23.34s12.65-3.38,15.89-1.77" transform="translate(0.34)"/><path class="cls-17" d="M257.6,173.52L236.2,190.28l-8.88-6,12-22.91S253.7,163.46,257.6,173.52Z" transform="translate(0.34)"/><path class="cls-10" d="M267.21,155.29s-12.64,8.06-9.61,18.23c-3.66-9.54-18.38-12-18.38-12l1.26-2.44L241.1,157c3.29,0.09,5.5-2.14,12.43.46l2.23-3,9-4.37Z" transform="translate(0.34)"/><path class="cls-18" d="M218.9,186.74l-55.79,6.83A7.59,7.59,0,1,0,165,208.62l55.79-6.83A7.59,7.59,0,1,0,218.9,186.74Z" transform="translate(0.34)"/><rect class="cls-19" x="103.66" y="119.62" width="50.17" height="22.87" rx="4.42" ry="4.42" transform="translate(-14.62 16.61) rotate(-6.98)"/><rect class="cls-13" x="103.58" y="142.84" width="47.41" height="24.73" rx="1" ry="1" transform="translate(-17.56 16.61) rotate(-6.98)"/><rect class="cls-13" x="78.47" y="79.77" width="24.67" height="47.41" rx="1.38" ry="1.38" transform="matrix(0.76, -0.65, 0.65, 0.76, -45.07, 83.51)"/><rect class="cls-20" x="104.26" y="156.5" width="46.5" height="0.29" transform="translate(-17.74 16.64) rotate(-6.98)"/><rect class="cls-20" x="104.12" y="132.7" width="49.93" height="0.29" transform="translate(-14.83 16.66) rotate(-6.98)"/><rect class="cls-20" x="90.29" y="80.09" width="0.29" height="47.4" transform="translate(-45.61 85.12) rotate(-41.14)"/><rect class="cls-19" x="36.73" y="140.79" width="22.87" height="50.17" rx="4.42" ry="4.42" transform="translate(-124.04 173.61) rotate(-76.37)"/><rect class="cls-20" x="48.52" y="140.02" width="0.29" height="49.69" transform="translate(-122.81 169.61) rotate(-75.14)"/><path class="cls-21" d="M37.29,161.88a0.77,0.77,0,0,0-.68-0.8l-3.79-1a0.77,0.77,0,0,0-1,.37h0a0.77,0.77,0,0,0,.68.8l3.79,1a0.77,0.77,0,0,0,1-.37h0Z" transform="translate(0.34)"/><path class="cls-21" d="M64.19,168.85a0.77,0.77,0,0,0-.68-0.8l-3.79-1a0.77,0.77,0,0,0-1,.37h0a0.77,0.77,0,0,0,.68.8l3.79,1a0.77,0.77,0,0,0,1-.37h0Z" transform="translate(0.34)"/><polyline class="cls-22" points="55.05 168.44 52.53 167.78 53.46 164.2 43.87 161.72 42.94 165.3 40.69 164.72"/><path class="cls-21" d="M140.09,131.63a0.77,0.77,0,0,0,.93.5l3.88-.47a0.77,0.77,0,0,0,.78-0.7h0a0.77,0.77,0,0,0-.93-0.5l-3.88.47a0.77,0.77,0,0,0-.78.7h0Z" transform="translate(0.34)"/><path class="cls-21" d="M112.51,135a0.77,0.77,0,0,0,.93.5l3.88-.47a0.77,0.77,0,0,0,.78-0.7h0a0.77,0.77,0,0,0-.93-0.5l-3.88.47a0.77,0.77,0,0,0-.78.7h0Z" transform="translate(0.34)"/><polyline class="cls-22" points="121.84 131.91 124.42 131.59 124.87 135.27 134.7 134.07 134.25 130.39 136.56 130.11"/><polyline class="cls-22" points="94.54 110.33 92.86 108.35 95.68 105.95 89.26 98.41 86.44 100.81 84.93 99.03"/><path class="cls-21" d="M138.52,155.43a0.77,0.77,0,0,0,.93.5l3.88-.47a0.77,0.77,0,0,0,.78-0.7h0a0.77,0.77,0,0,0-.93-0.5l-3.88.47a0.77,0.77,0,0,0-.78.7h0Z" transform="translate(0.34)"/><path class="cls-21" d="M110.94,158.8a0.77,0.77,0,0,0,.93.5l3.88-.47a0.77,0.77,0,0,0,.78-0.7h0a0.77,0.77,0,0,0-.93-0.5l-3.88.47a0.77,0.77,0,0,0-.78.7h0Z" transform="translate(0.34)"/><polyline class="cls-22" points="120.27 155.71 122.84 155.39 123.3 159.07 133.12 157.87 132.67 154.19 134.99 153.91"/><path class="cls-10" d="M151.31,166.92a1.81,1.81,0,0,1-1.17,3l-43.43,5.31s-2,.29-2.34-2.44l-1-8a1.93,1.93,0,0,1,3.08-1.66c2.54,1.77,6.61,3.22,12.94,2.44l12.53-1.53,15.89-1.94a1.85,1.85,0,0,1,2.12,1.72A4.66,4.66,0,0,0,151.31,166.92Z" transform="translate(0.34)"/><polygon class="cls-23" points="120.47 173.67 154.94 169.45 156.03 178.35 120.47 173.67"/><path class="cls-24" d="M201.79,151.87s-23.67,3.91-28.72,1.75c-26.78-6.33-31.92,13.16-21.36,16.15l53.61-6.45Z" transform="translate(0.34)"/><path class="cls-14" d="M165.36,163.15c0.3,2.47-.57,4.61-1.94,4.78l-9,1.1c-1.37.17-2.73-1.7-3-4.17h0c-0.3-2.47.57-4.61,1.94-4.78l9-1.1c1.37-.17,2.73,1.7,3,4.17h0Z" transform="translate(0.34)"/><circle class="cls-21" cx="153.32" cy="166.36" r="0.72" transform="translate(-18.72 19.85) rotate(-6.98)"/><circle class="cls-21" cx="163.82" cy="165.07" r="0.72" transform="translate(-18.49 21.12) rotate(-6.98)"/><path class="cls-25" d="M163.52,204.81l-0.27,0a4.08,4.08,0,0,1-4.35-3.77l-4.27-34.86a4.08,4.08,0,0,1,3.31-4.71l0.27,0a4.08,4.08,0,0,1,4.35,3.77l4.27,34.86A4.08,4.08,0,0,1,163.52,204.81Z" transform="translate(0.34)"/><path class="cls-22" d="M164.86,200.83a2,2,0,0,1-1.7,2.17h0a2,2,0,0,1-2.17-1.7h0a2,2,0,0,1,1.7-2.17h0a2,2,0,0,1,2.17,1.7h0Z" transform="translate(0.34)"/><path class="cls-22" d="M160.62,164.74a2,2,0,0,1-1.7,2.17h0a2,2,0,0,1-2.17-1.7h0a2,2,0,0,1,1.7-2.17h0a2,2,0,0,1,2.17,1.7h0Z" transform="translate(0.34)"/><circle class="cls-21" cx="153.87" cy="161.44" r="0.72" transform="translate(-18.12 19.88) rotate(-6.98)"/><circle class="cls-21" cx="161.84" cy="160.71" r="0.72" transform="translate(-17.98 20.84) rotate(-6.98)"/><path class="cls-26" d="M272.78,159.65l-0.36,1.92a0.45,0.45,0,0,0,.36.51h0a0.45,0.45,0,0,0,.51-0.36l0.47-2.65" transform="translate(0.34)"/><path class="cls-26" d="M264.6,167.2l0.41,1.91a0.45,0.45,0,0,0,.53.34h0a0.45,0.45,0,0,0,.34-0.53l-0.59-2.63" transform="translate(0.34)"/><path class="cls-26" d="M268.09,163.23l0,2a0.45,0.45,0,0,0,.46.43h0a0.45,0.45,0,0,0,.43-0.46l-0.09-2.69" transform="translate(0.34)"/><path class="cls-26" d="M261.65,172.32l0.79,1.79a0.45,0.45,0,0,0,.59.22h0a0.45,0.45,0,0,0,.22-0.59l-1.12-2.45" transform="translate(0.34)"/><path class="cls-26" d="M259.88,177.64l1.13,1.6a0.45,0.45,0,0,0,.62.1h0a0.45,0.45,0,0,0,.1-0.62l-1.58-2.18" transform="translate(0.34)"/><path class="cls-26" d="M259.62,188.78l1.66,1a0.45,0.45,0,0,0,.61-0.15h0a0.45,0.45,0,0,0-.15-0.61l-2.29-1.41" transform="translate(0.34)"/><path class="cls-26" d="M259.19,183.51l1.44,1.33a0.45,0.45,0,0,0,.63,0h0a0.45,0.45,0,0,0,0-.63l-2-1.81" transform="translate(0.34)"/><path class="cls-26" d="M261.24,194.46l1.84,0.67a0.45,0.45,0,0,0,.57-0.27h0a0.45,0.45,0,0,0-.27-0.57l-2.54-.9" transform="translate(0.34)"/><path class="cls-26" d="M263.54,199l1.93,0.34a0.45,0.45,0,0,0,.51-0.37h0a0.45,0.45,0,0,0-.37-0.51L263,198" transform="translate(0.34)"/><path class="cls-26" d="M271.2,207.05l1.91-.43a0.45,0.45,0,0,0,.33-0.54h0a0.45,0.45,0,0,0-.54-0.33l-2.62.62" transform="translate(0.34)"/><path class="cls-26" d="M267.18,203.61l2-.07a0.45,0.45,0,0,0,.42-0.47h0a0.45,0.45,0,0,0-.47-0.42l-2.69.12" transform="translate(0.34)"/><path class="cls-26" d="M276.35,209.94l1.78-.82a0.45,0.45,0,0,0,.21-0.59h0a0.45,0.45,0,0,0-.59-0.21l-2.43,1.15" transform="translate(0.34)"/><path class="cls-26" d="M281.7,211.64l1.58-1.15a0.45,0.45,0,0,0,.09-0.62h0a0.45,0.45,0,0,0-.62-0.09l-2.16,1.6" transform="translate(0.34)"/><path class="cls-26" d="M292.84,211.76l1-1.67a0.45,0.45,0,0,0-.16-0.61h0a0.45,0.45,0,0,0-.61.16l-1.38,2.31" transform="translate(0.34)"/><path class="cls-26" d="M287.57,212.25l1.31-1.45a0.45,0.45,0,0,0,0-.63h0a0.45,0.45,0,0,0-.63,0l-1.78,2" transform="translate(0.34)"/><path class="cls-26" d="M298.49,210.06l0.65-1.84a0.45,0.45,0,0,0-.28-0.56h0a0.45,0.45,0,0,0-.56.28l-0.87,2.55" transform="translate(0.34)"/><path class="cls-26" d="M302.07,208.26l0.38-1.92a0.45,0.45,0,0,0-.36-0.52h0a0.45,0.45,0,0,0-.52.36l-0.5,2.64" transform="translate(0.34)"/><path class="cls-26" d="M310.34,200.81L310,198.89a0.45,0.45,0,0,0-.53-0.34h0a0.45,0.45,0,0,0-.34.53l0.55,2.63" transform="translate(0.34)"/><path class="cls-26" d="M306.81,204.74l0-2a0.45,0.45,0,0,0-.46-0.43h0a0.45,0.45,0,0,0-.43.46l0.06,2.69" transform="translate(0.34)"/><path class="cls-26" d="M313.36,195.73l-0.77-1.8a0.45,0.45,0,0,0-.59-0.22h0a0.45,0.45,0,0,0-.22.59l1.09,2.46" transform="translate(0.34)"/><path class="cls-26" d="M315.18,190.42l-1.11-1.61a0.45,0.45,0,0,0-.62-0.1h0a0.45,0.45,0,0,0-.1.62l1.55,2.2" transform="translate(0.34)"/><path class="cls-26" d="M315.58,179.29l-1.64-1.06a0.45,0.45,0,0,0-.61.14h0a0.45,0.45,0,0,0,.14.61l2.28,1.43" transform="translate(0.34)"/><path class="cls-26" d="M315.94,184.57l-1.42-1.35a0.45,0.45,0,0,0-.63,0h0a0.45,0.45,0,0,0,0,.63l2,1.83" transform="translate(0.34)"/><path class="cls-26" d="M314,173.6l-1.83-.7a0.45,0.45,0,0,0-.57.27h0a0.45,0.45,0,0,0,.27.57l2.52,0.93" transform="translate(0.34)"/><path class="cls-26" d="M311.78,169.06l-1.92-.36a0.45,0.45,0,0,0-.51.36h0a0.45,0.45,0,0,0,.36.51l2.65,0.47" transform="translate(0.34)"/><path class="cls-26" d="M304.22,160.88l-1.91.41a0.45,0.45,0,0,0-.33.53h0a0.45,0.45,0,0,0,.53.33l2.63-.59" transform="translate(0.34)"/><path class="cls-26" d="M308.19,164.37l-2,0a0.45,0.45,0,0,0-.43.46h0a0.45,0.45,0,0,0,.46.43l2.69-.09" transform="translate(0.34)"/><path class="cls-26" d="M299.1,157.93l-1.79.79a0.45,0.45,0,0,0-.22.59h0a0.45,0.45,0,0,0,.59.22l2.45-1.12" transform="translate(0.34)"/><path class="cls-26" d="M293.77,156.17l-1.6,1.13a0.45,0.45,0,0,0-.1.62h0a0.45,0.45,0,0,0,.62.1l2.18-1.58" transform="translate(0.34)"/><path class="cls-26" d="M282.64,155.92l-1,1.66a0.45,0.45,0,0,0,.15.61h0a0.45,0.45,0,0,0,.61-0.15l1.4-2.3" transform="translate(0.34)"/><path class="cls-26" d="M287.91,155.49l-1.33,1.44a0.45,0.45,0,0,0,0,.63h0a0.45,0.45,0,0,0,.63,0l1.81-2" transform="translate(0.34)"/><path class="cls-26" d="M277,157.54l-0.67,1.84a0.45,0.45,0,0,0,.27.57h0a0.45,0.45,0,0,0,.57-0.27l0.9-2.54" transform="translate(0.34)"/><polygon class="cls-17" points="265.33 146.01 285.36 166.6 288.21 185.12 265.33 146.01"/><circle class="cls-21" cx="287.47" cy="184.01" r="3" transform="translate(-19.87 36.27) rotate(-6.98)"/><path class="cls-14" d="M189.47,177.89a29.94,29.94,0,0,1,2.45,3.54l34.25-23.8-10.7,2.31-0.66.46,0,0Z" transform="translate(0.34)"/><path class="cls-10" d="M214.89,160.49l-2.13-3.76L186.53,174.8a28.62,28.62,0,0,1,3,3.16Z" transform="translate(0.34)"/><path class="cls-27" d="M189.47,177.89l0,0" transform="translate(0.34)"/><path class="cls-28" d="M182.84,172a29.83,29.83,0,0,1,3.69,2.84l26.79-18.25-4-3-2.3,1.58,0.06,0.11Z" transform="translate(0.34)"/><path class="cls-17" d="M193.11,164.89l0.19-.13-20.1,2.42c1.49,0.58,7.63,3.06,9.64,4.78Z" transform="translate(0.34)"/><path class="cls-29" d="M224.32,120.32l8.54-1a5,5,0,0,0,4.12-5.7l-0.27-2.18a5,5,0,0,0-5.37-4.54l-9.23-2.7c-2.62.32-3.78,6.62-3.44,9.45l0.27,2.18A5,5,0,0,0,224.32,120.32Z" transform="translate(0.34)"/><rect class="cls-24" x="218.04" y="108.27" width="13.95" height="5.73" rx="2.34" ry="2.34" transform="translate(18.74 -31.31) rotate(8.3)"/><path class="cls-16" d="M180,106.95s-2.4-3.75.81-6.14,6.53-2.53,8.62-1.36,9,2.24,11.24,3.3,7.81,1.6,7.81,1.6,3.72-.18,5,0.53,8.77,1.15,8.77,1.15l-2.42,8.06a36.89,36.89,0,0,0-3.72-.5,16.14,16.14,0,0,1-3.7-.78l-0.28,1.27s-7.72-1.61-8.2-1.81-13-.68-13-0.68S180.22,112.05,180,106.95Z" transform="translate(0.34)"/><path class="cls-30" d="M224.74,121.21c2.62-.32,12.75-1.22,12.25-7.65l-0.27-2.18c-0.35-2.83-1.39-4.23-5.23-5.11l-9.37-2.13C234.77,111.84,224.74,121.21,224.74,121.21Z" transform="translate(0.34)"/><path class="cls-18" d="M262.39,144.59l-12.62-25.53c-0.6-1-2.57-4.71-3.78-4.72l-5.86-.48h-0.2l-9.88-.51a1.21,1.21,0,0,1-1.23-.92h0a1.21,1.21,0,0,1,1.12-1.49l16.34,1.1a3.39,3.39,0,0,1,3.07,1.65c2.94,4.93,13.36,26.21,16.65,32C265.11,148.63,262.39,144.59,262.39,144.59Z" transform="translate(0.34)"/><circle class="cls-29" cx="229.71" cy="112.11" r="0.77" transform="translate(-11.57 28.73) rotate(-6.98)"/><circle class="cls-14" cx="211.07" cy="112.84" r="0.54" transform="translate(-26.66 88.23) rotate(-22.23)"/><path class="cls-18" d="M262.49,145.18l-12.08-20.93a3.4,3.4,0,0,0-2.91-1.7l-5.19-.06h-0.2l-12.5.6a1.21,1.21,0,0,1-1.23-.92h0a1.21,1.21,0,0,1,1.12-1.49l18.91-.85a3.39,3.39,0,0,1,3.07,1.65c2.94,4.93,11.34,19,14.63,24.78C265.2,149.22,262.49,145.18,262.49,145.18Z" transform="translate(0.34)"/><path class="cls-18" d="M254.16,141.92s1.9,12,1.58,12.88S284.67,142.22,254.16,141.92Z" transform="translate(0.34)"/><path class="cls-18" d="M270.38,140.56s1.26,8.82,1.65,9.36S250.76,148.13,270.38,140.56Z" transform="translate(0.34)"/><circle class="cls-31" cx="264.98" cy="146.01" r="2.37" transform="translate(-15.43 33.26) rotate(-6.98)"/><ellipse class="cls-14" cx="273.76" cy="144.94" rx="3.41" ry="8.25" transform="translate(-15.23 34.32) rotate(-6.98)"/><ellipse class="cls-32" cx="275.47" cy="144.74" rx="1.72" ry="6" transform="translate(-15.19 34.53) rotate(-6.98)"/><path class="cls-33" d="M598,112.47L276.16,150l-1.43-10.67L600.18,92.57a3.25,3.25,0,0,1,4.9,2.39l0,11.52A5.54,5.54,0,0,1,598,112.47Z" transform="translate(0.34)"/><path class="cls-18" d="M254.16,141.92s-1.58-5.73-21.23-4.71-25.83,5-25.83,5-11.06,9.41-2.62,21.85c0,0,26-9.86,48.89-6C258.28,155,255.93,143.85,254.16,141.92Z" transform="translate(0.34)"/><path class="cls-34" d="M241.78,136.66c0,1.14-1.41,2.09-3.21,2.13l-2.87.06c-1.79,0-3.27-.86-3.29-2h0c0-1.14,1.41-2.09,3.21-2.13l2.87-.06c1.79,0,3.27.86,3.29,2h0Z" transform="translate(0.34)"/><path class="cls-35" d="M176.48,143.6c-1.13,2.07-3.72,7.69-.41,10.82a2.09,2.09,0,0,0,1.64.54c9.5-.89,22.8-2.69,28-3.41a2.15,2.15,0,0,1,2.43,1.84l0,0.29a2.19,2.19,0,0,1-.74,2c-2.56,2.19-.69,1.09-0.69,1.09v6.81l-0.07,2.19,1.82-3L206,169.2a1.39,1.39,0,0,1-1.13.88h0a1.39,1.39,0,0,0-.94.54l-1.63,2.14a2.17,2.17,0,0,0,0,2.59h0a2.17,2.17,0,0,0,1.51.88l9.7,1.08a2.17,2.17,0,0,0,2.28-1.42l1.8-4.94,4.78-14a2.17,2.17,0,0,0,.07-0.27l0.37-1.82a2,2,0,0,0,0-.24c0.09-1.14.57-9.84-5.71-12.37a2.56,2.56,0,0,0-.42-0.13,71.2,71.2,0,0,0-15.07-1.42c-3-.11-8.85-2.78-23.87,1.82A2.19,2.19,0,0,0,176.48,143.6Z" transform="translate(0.34)"/><path class="cls-24" d="M202.25,177.45l-2.73,6.14a2,2,0,0,0,1.45,2.77l18.38,3.53a2,2,0,0,0,2.17-1.08l0.94-1.93-1.57-.32,3.42-5.09a2,2,0,0,0-1.43-3.1l-18.59-2.08A2,2,0,0,0,202.25,177.45Z" transform="translate(0.34)"/><circle class="cls-10" cx="216.37" cy="191.15" r="2.23" transform="translate(-21.27 27.69) rotate(-6.98)"/><polygon class="cls-36" points="202.13 181.35 204.88 184.3 208.03 179.62 202.13 181.35"/><polygon class="cls-36" points="200.77 186.16 221.2 190.17 222.81 186.87 200.77 186.16"/><ellipse class="cls-14" cx="193.61" cy="120.33" rx="1.12" ry="2.25" transform="translate(-12.84 24.4) rotate(-6.98)"/><path class="cls-14" d="M176.46,143.12S192.25,140.2,197,142s1.36-6.53,1.36-6.53l-0.34-3.3-0.77-3.72-0.87-5.84,1.38-8L197.58,93s-11.12,1.66-15.48,1.61C165,108,176.46,143.12,176.46,143.12Z" transform="translate(0.34)"/><ellipse class="cls-24" cx="194.26" cy="123.67" rx="0.62" ry="1.24" transform="translate(-11.39 20.72) rotate(-5.93)"/><ellipse class="cls-24" cx="194.5" cy="128.28" rx="0.62" ry="1.24" transform="translate(-11.86 20.77) rotate(-5.93)"/><ellipse class="cls-24" cx="195.1" cy="133.06" rx="0.62" ry="1.24" transform="translate(-12.35 20.86) rotate(-5.93)"/><path class="cls-37" d="M185.26,91.68s8.19-.11,5.21,2.29c5.2,7.31-14.82.9-6.55,48.09l-7.45,1.07s-11.39-38.22,3.7-46.77Z" transform="translate(0.34)"/><rect class="cls-24" x="214.71" y="118.17" width="13.95" height="5.73" rx="2.34" ry="2.34" transform="translate(20.13 -30.72) rotate(8.3)"/><path class="cls-35" d="M183.15,107.7s-2.4-3.75.81-6.14,6.53-2.53,8.62-1.36,4.77,11,7,12.06,7.81,1.6,7.81,1.6,6.31,0,7.54.76,6.69-1.29,6.69-1.29L218.08,127a34.93,34.93,0,0,0-4.6-.82,16.14,16.14,0,0,1-3.7-.78l-0.65,2.7s-7.59-2.72-8.08-2.92-11.27-4.11-11.27-4.11S183.35,112.8,183.15,107.7Z" transform="translate(0.34)"/><circle class="cls-14" cx="207.89" cy="126.28" r="0.54" transform="translate(-31.98 88.03) rotate(-22.23)"/><path class="cls-10" d="M227.52,127.6l8.54-1a5,5,0,0,0,4.12-5.7l-0.27-2.18a5,5,0,0,0-5.37-4.54l-9.23-2.7c-2.62.32-3.78,6.62-3.44,9.45l0.27,2.18A5,5,0,0,0,227.52,127.6Z" transform="translate(0.34)"/><path class="cls-30" d="M236.06,126.55a5,5,0,0,0,4.12-5.7l-0.27-2.18a5,5,0,0,0-5.37-4.54l-9.23-2.7C243,121.19,236.06,126.55,236.06,126.55Z" transform="translate(0.34)"/><circle class="cls-18" cx="229.07" cy="122.47" r="1.51" transform="translate(-12.83 28.73) rotate(-6.98)"/><circle class="cls-38" cx="238.19" cy="120.78" r="0.57" transform="translate(-12.56 29.82) rotate(-6.98)"/><circle class="cls-38" cx="236.33" cy="121.01" r="0.57" transform="translate(-12.6 29.6) rotate(-6.98)"/><circle class="cls-38" cx="234.46" cy="121.24" r="0.57" transform="translate(-12.64 29.37) rotate(-6.98)"/><polygon class="cls-14" points="202 86.78 210.23 66.98 191.98 89.47 202 86.78"/><polygon class="cls-14" points="181.5 88.91 169.36 71.24 191.85 89.49 181.5 88.91"/><polygon class="cls-38" points="169.36 71.24 178.15 70.32 191.85 89.49 169.36 71.24"/><polygon class="cls-38" points="210.23 66.98 201.75 67.86 191.98 89.47 210.23 66.98"/><polygon class="cls-38" points="169.36 71.24 180.59 59.67 181.66 69.95 169.36 71.24"/><polygon class="cls-38" points="210.23 66.98 196.98 57.96 198.35 68.22 210.23 66.98"/><polygon class="cls-39" points="178.15 70.32 201.75 67.86 192 90.9 178.15 70.32"/><polygon class="cls-39" points="180.59 59.67 188.72 58.82 178.15 70.32 180.59 59.67"/><polygon class="cls-39" points="196.98 57.96 188.85 58.81 201.75 67.86 196.98 57.96"/><polygon class="cls-38" points="178.15 70.32 201.75 67.86 188.72 58.82 178.15 70.32"/><polygon class="cls-40" points="178.18 70.32 201.76 67.74 190.94 79.33 178.18 70.32"/><text class="cls-41" transform="translate(225.81 150.9) rotate(-6.98)">SCHUT</text><rect class="cls-13" x="119.08" y="71.62" width="24.67" height="47.41" rx="2.53" ry="2.53" transform="translate(-10.26 16.67) rotate(-6.98)"/><rect class="cls-20" x="131.43" y="71.98" width="0.29" height="47.03" transform="translate(-10.28 16.69) rotate(-6.98)"/><path class="cls-21" d="M130.34,84.3a0.77,0.77,0,0,0,.5-0.93l-0.47-3.88a0.77,0.77,0,0,0-.7-0.78h0a0.77,0.77,0,0,0-.5.93l0.47,3.88a0.77,0.77,0,0,0,.7.78h0Z" transform="translate(0.34)"/><path class="cls-21" d="M133.71,111.87a0.77,0.77,0,0,0,.5-0.93l-0.47-3.88a0.77,0.77,0,0,0-.7-0.78h0a0.77,0.77,0,0,0-.5.93l0.47,3.88a0.77,0.77,0,0,0,.7.78h0Z" transform="translate(0.34)"/><polyline class="cls-22" points="130.96 102.89 130.65 100.31 134.32 99.86 133.12 90.03 129.45 90.48 129.16 88.17"/><path class="cls-38" d="M179,86.07s-3,9.3,1.8,11.37,23.49-4.38,23.49-4.38,2-5.16-.87-7.07S191.8,90.8,179,86.07Z" transform="translate(0.34)"/><path class="cls-42" d="M193.39,87.29l1,8.52,5-.61L200.12,86S196,86.84,193.39,87.29Z" transform="translate(0.34)"/><path class="cls-38" d="M206,100.89c-5.38,7-20.76,24.83-45,19.87s-54.91-3.1-77.09,5-3.16-14.81-3.16-14.81,51.79-10.74,68.77-3.52c36.34,10.5,44.56-4.84,46.88-20.66a54.45,54.45,0,0,1,5.72-1.17C207.49,85.78,208.35,98.68,206,100.89Z" transform="translate(0.34)"/><path class="cls-42" d="M193.35,97.84c4,1.22,6.94,5,8.61,7.95,0.78,0.21-7.73,7.44-8.35,7.52s-6.71-7.13-6.71-7.13S192.37,100.25,193.35,97.84Z" transform="translate(0.34)"/><path class="cls-42" d="M175,110.63l1.28,10.43s-10,1.94-15.32-.29c-4.78-1.68-1.34-10.94-1.34-10.94S173,110.93,175,110.63Z" transform="translate(0.34)"/><path class="cls-42" d="M149.52,107.42s-1.92,10-.51,11.5l-20.34-.85,1.89-13.14S143.14,104,149.52,107.42Z" transform="translate(0.34)"/><path class="cls-42" d="M117.8,105.55l-4,13.5-16.52,2.79,2.22-14.14C99.67,106.68,117.8,105.55,117.8,105.55Z" transform="translate(0.34)"/><path class="cls-42" d="M179,86.07s-3.29,10.11,1.61,11.71c4.6,1.38,6.72-.28,6.72-0.28l-0.79-9.78C186.11,87.25,182.33,87.17,179,86.07Z" transform="translate(0.34)"/></svg>